<svg xmlns="http://www.w3.org/2000/svg" width="550" height="550" enable-background="new 0 0 550 550" viewBox="0 0 550 550"><path fill="none" stroke="#000" stroke-linejoin="round" stroke-miterlimit="10" stroke-width="20" d="M531,444.471
		c0,8.837-7.163,16-16,16H35c-8.837,0-16-7.163-16-16v-293c0-8.836,7.163-16,16-16h480c8.837,0,16,7.164,16,16V444.471z"/><polygon fill="none" stroke="#000" stroke-linejoin="round" stroke-miterlimit="10" stroke-width="20" points="391.406 135.471 366.748 89.529 183.251 89.529 158.593 135.471"/><path fill="none" stroke="#000" stroke-linejoin="round" stroke-miterlimit="10" stroke-width="20" d="M136.439 135.471v-14.309c0-8.836-7.164-16-16-16H62.566c-8.837 0-16 7.164-16 16v14.309H136.439zM503.433 135.471v-14.309c0-8.836-7.163-16-16-16H429.56c-8.836 0-16 7.164-16 16v14.309H503.433z"/><circle cx="275" cy="297.482" r="127" fill="none" stroke="#000" stroke-linejoin="round" stroke-miterlimit="10" stroke-width="20"/><circle cx="274.537" cy="297.672" r="85.603" fill="none" stroke="#000" stroke-linejoin="round" stroke-miterlimit="10" stroke-width="20"/><line x1="413.56" x2="467.068" y1="179.71" y2="179.71" fill="none" stroke="#000" stroke-linecap="round" stroke-linejoin="round" stroke-miterlimit="10" stroke-width="20"/></svg>