<?xml version="1.0" encoding="UTF-8"?><!DOCTYPE svg PUBLIC "-//W3C//DTD SVG 1.1//EN" "http://www.w3.org/Graphics/SVG/1.1/DTD/svg11.dtd"><svg xmlns="http://www.w3.org/2000/svg" xmlns:xlink="http://www.w3.org/1999/xlink" height="100px" id="Layer_1" version="1.1" viewBox="0 0 100 100" width="100px" xml:space="preserve"><defs><path id="SVGID_1_" d="M0 0h100v100H0z"/></defs><path d="M50.001 5C25.147 5 5 25.147 5 50s20.147 45 45 45c24.851 0 45-20.148 45-45S74.852 5 50.001 5m0 81C30.12 86 14 69.881 14 50c0-19.88 16.119-36 36-36 19.88 0 36 16.12 36 36 .001 19.881-16.119 36-35.999 36M66.48 62.059c.289 3.828-2.584 7.313-6.422 7.791-3.832.476-7.185-2.24-7.472-6.067-.293-3.823 2.59-7.313 6.422-7.787a6.831 6.831 0 0 1 3.41.438V37.64l-18 3.347v23.48h-.035c.009.066.026.127.026.193.291 3.828-2.584 7.309-6.416 7.787-3.841.475-7.18-2.241-7.471-6.064-.295-3.828 2.58-7.316 6.416-7.787a6.725 6.725 0 0 1 3.41.443v-27.07l26.112-4.46.025-.009v.004l.01-.004-.01.12v34.25h-.035c.013.066.025.122.03.189"/><metadata><rdf:RDF xmlns:rdf="http://www.w3.org/1999/02/22-rdf-syntax-ns#" xmlns:rdfs="http://www.w3.org/2000/01/rdf-schema#" xmlns:dc="http://purl.org/dc/elements/1.1/"><rdf:Description about="https://iconscout.com/legal#licenses" dc:title="itunes" dc:description="itunes" dc:publisher="Iconscout" dc:date="2017-09-19" dc:format="image/svg+xml" dc:language="en"><dc:creator><rdf:Bag><rdf:li>Vincent Le Moign</rdf:li></rdf:Bag></dc:creator></rdf:Description></rdf:RDF></metadata></svg>