<svg xmlns="http://www.w3.org/2000/svg" enable-background="new 0 0 68 68" viewBox="0 0 68 68"><path d="M39.04999 54.85503c0 .28003-.22998.5-.5.5H22.06c-.27002 0-.5-.21997-.5-.5 0-.27002.22998-.5.5-.5 1 0 1.75-.31006 2.29999-.94995.95001-1.1001 1.03998-2.92004 1-4.01001H35.25c-.04004 1.09998.06 2.91992 1 4.02002.54999.62988 1.29999.93994 2.29999.93994C38.82001 54.35503 39.04999 54.58501 39.04999 54.85503zM53.20001 7.05498H7.40997c-2.70996 0-4.89996 2.19006-4.89996 4.90002v31.54004c0 2.70996 2.19 4.90002 4.89996 4.90002h31.17004v-6.13013H7.40997c-.66998 0-1.21997-.54993-1.21997-1.22998V11.95501c0-.68005.54999-1.22998 1.21997-1.22998h45.79004c.66998 0 1.21997.54993 1.21997 1.22998v14.04004h3.67999V11.95501C58.09998 9.24505 55.90997 7.05498 53.20001 7.05498zM30.31 44.02495c.71002 0 1.28998.58008 1.28998 1.31006 0 .71997-.57996 1.30005-1.28998 1.30005-.72998 0-1.31-.58008-1.31-1.30005C29 44.60503 29.58002 44.02495 30.31 44.02495z"/><path d="M53.41998,11.95501v3.80994H7.19v-3.80994c0-0.12,0.09998-0.22998,0.21997-0.22998h45.79004
		C53.32001,11.72503,53.41998,11.83501,53.41998,11.95501z"/><rect width="18.167" height="1" x="31.24" y="18.768"/><path d="M26.8986,20.26822v4.5c0,0.55228-0.44772,1-1,1H11.56858c-0.55229,0-1-0.44772-1-1v-4.5c0-0.55228,0.44771-1,1-1H25.8986
		C26.45088,19.26822,26.8986,19.71593,26.8986,20.26822z"/><rect width="18.167" height="1" x="31.24" y="22.018"/><rect width="5.687" height="1" x="31.24" y="25.268"/><path d="M35.40331 30.26844v8.19007c0 .55228-.44772 1-1 1H26.2033c-.55228 0-1-.44772-1-1v-8.19007c0-.55228.44772-1 1-1h8.20001C34.95559 29.26844 35.40331 29.71616 35.40331 30.26844zM20.76587 30.26844v8.19007c0 .55228-.44772 1-1 1h-8.20001c-.55229 0-1-.44772-1-1v-8.19007c0-.55228.44771-1 1-1h8.20001C20.31816 29.26844 20.76587 29.71616 20.76587 30.26844zM62.48999 26.99505H42.58002c-1.65002 0-3 1.33997-3 3V57.945c0 1.65002 1.34998 3 3 3h19.90997c1.65997 0 3-1.34998 3-3V29.99505C65.48999 28.33501 64.14996 26.99505 62.48999 26.99505zM52 59.76494c-.59003 0-1.07001-.47998-1.07001-1.06995 0-.59998.47998-1.07996 1.07001-1.07996.59998 0 1.08002.47998 1.08002 1.07996C53.08002 59.28496 52.59998 59.76494 52 59.76494zM63.23999 55.445c0 .55005-.44 1-1 1H42.83002c-.55005 0-1-.44995-1-1V30.49505c0-.55994.44995-1 1-1h19.40997c.56 0 1 .44006 1 1V55.445z"/><rect width="15.17" height="9.435" x="44.953" y="37.457"/><rect width="15.17" height="2.506" x="44.953" y="32.223"/><rect width="12.32" height="1" x="44.95" y="52.395"/><rect width="15.17" height="1" x="44.95" y="49.395"/></svg>